<mxfile host="Electron" agent="Mozilla/5.0 (Windows NT 10.0; Win64; x64) AppleWebKit/537.36 (KHTML, like Gecko) draw.io/27.0.2 Chrome/134.0.6998.205 Electron/35.3.0 Safari/537.36" version="27.0.2" pages="2">
  <diagram name="Page-1" id="c7488fd3-1785-93aa-aadb-54a6760d102a">
    <mxGraphModel dx="1026" dy="632" grid="1" gridSize="10" guides="1" tooltips="1" connect="1" arrows="1" fold="1" page="1" pageScale="1" pageWidth="1100" pageHeight="850" background="none" math="0" shadow="0">
      <root>
        <mxCell id="0" />
        <mxCell id="1" parent="0" />
        <mxCell id="2b4e8129b02d487f-1" value="&lt;font style=&quot;font-size: 8.5px;&quot;&gt;Fluxograma de Tratamento de Problemas&lt;/font&gt;" style="swimlane;html=1;childLayout=stackLayout;horizontal=1;startSize=20;horizontalStack=0;rounded=0;shadow=0;labelBackgroundColor=none;strokeWidth=1;fontFamily=Verdana;fontSize=8;align=center;" parent="1" vertex="1">
          <mxGeometry x="180" y="70" width="810" height="670" as="geometry" />
        </mxCell>
        <mxCell id="2b4e8129b02d487f-3" value="&lt;font style=&quot;font-size: 10px;&quot;&gt;Usuário&lt;/font&gt;" style="swimlane;html=1;startSize=20;horizontal=0;" parent="2b4e8129b02d487f-1" vertex="1">
          <mxGeometry y="20" width="810" height="150" as="geometry" />
        </mxCell>
        <mxCell id="oVZ1BAvheATIpDn7J5tm-20" value="" style="edgeStyle=orthogonalEdgeStyle;rounded=0;orthogonalLoop=1;jettySize=auto;html=1;" edge="1" parent="2b4e8129b02d487f-3" source="oVZ1BAvheATIpDn7J5tm-17" target="oVZ1BAvheATIpDn7J5tm-19">
          <mxGeometry relative="1" as="geometry" />
        </mxCell>
        <mxCell id="oVZ1BAvheATIpDn7J5tm-17" value="&lt;font style=&quot;font-size: 8.5px;&quot;&gt;Receber notificação&lt;/font&gt;" style="rounded=1;whiteSpace=wrap;html=1;shadow=0;labelBackgroundColor=none;strokeWidth=1;fontFamily=Verdana;fontSize=8;align=center;" vertex="1" parent="2b4e8129b02d487f-3">
          <mxGeometry x="520" y="80" width="100" height="37" as="geometry" />
        </mxCell>
        <mxCell id="oVZ1BAvheATIpDn7J5tm-22" style="edgeStyle=orthogonalEdgeStyle;rounded=0;orthogonalLoop=1;jettySize=auto;html=1;exitX=1;exitY=0.5;exitDx=0;exitDy=0;entryX=0.5;entryY=0;entryDx=0;entryDy=0;" edge="1" parent="2b4e8129b02d487f-3" source="oVZ1BAvheATIpDn7J5tm-19" target="oVZ1BAvheATIpDn7J5tm-21">
          <mxGeometry relative="1" as="geometry" />
        </mxCell>
        <mxCell id="oVZ1BAvheATIpDn7J5tm-19" value="&lt;font style=&quot;font-size: 8.5px;&quot;&gt;Validar&lt;/font&gt;" style="rounded=1;whiteSpace=wrap;html=1;shadow=0;labelBackgroundColor=none;strokeWidth=1;fontFamily=Verdana;fontSize=8;align=center;" vertex="1" parent="2b4e8129b02d487f-3">
          <mxGeometry x="520" y="20" width="100" height="37" as="geometry" />
        </mxCell>
        <mxCell id="oVZ1BAvheATIpDn7J5tm-21" value="" style="ellipse;whiteSpace=wrap;html=1;rounded=0;shadow=0;labelBackgroundColor=none;strokeWidth=2;fontFamily=Verdana;fontSize=8;align=center;" vertex="1" parent="2b4e8129b02d487f-3">
          <mxGeometry x="670" y="60" width="30" height="30" as="geometry" />
        </mxCell>
        <mxCell id="2b4e8129b02d487f-4" value="&lt;span style=&quot;font-size: 10px;&quot;&gt;Central de Serviços&lt;/span&gt;" style="swimlane;html=1;startSize=20;horizontal=0;" parent="2b4e8129b02d487f-1" vertex="1">
          <mxGeometry y="170" width="810" height="160" as="geometry" />
        </mxCell>
        <mxCell id="s4QCKkaL5V6jj3v_4gCT-13" style="edgeStyle=orthogonalEdgeStyle;rounded=0;orthogonalLoop=1;jettySize=auto;html=1;exitX=1;exitY=0.5;exitDx=0;exitDy=0;entryX=0;entryY=0.5;entryDx=0;entryDy=0;" parent="2b4e8129b02d487f-4" source="s4QCKkaL5V6jj3v_4gCT-14" target="s4QCKkaL5V6jj3v_4gCT-16" edge="1">
          <mxGeometry relative="1" as="geometry" />
        </mxCell>
        <mxCell id="s4QCKkaL5V6jj3v_4gCT-14" value="" style="ellipse;whiteSpace=wrap;html=1;rounded=0;shadow=0;labelBackgroundColor=none;strokeWidth=1;fontFamily=Verdana;fontSize=8;align=center;" parent="2b4e8129b02d487f-4" vertex="1">
          <mxGeometry x="40" y="40" width="30" height="30" as="geometry" />
        </mxCell>
        <mxCell id="oVZ1BAvheATIpDn7J5tm-2" value="" style="edgeStyle=orthogonalEdgeStyle;rounded=0;orthogonalLoop=1;jettySize=auto;html=1;" edge="1" parent="2b4e8129b02d487f-4" source="s4QCKkaL5V6jj3v_4gCT-16" target="oVZ1BAvheATIpDn7J5tm-1">
          <mxGeometry relative="1" as="geometry" />
        </mxCell>
        <mxCell id="s4QCKkaL5V6jj3v_4gCT-16" value="&lt;font style=&quot;font-size: 8.5px;&quot;&gt;Identificação de Problema&lt;/font&gt;" style="rounded=1;whiteSpace=wrap;html=1;shadow=0;labelBackgroundColor=none;strokeWidth=1;fontFamily=Verdana;fontSize=9;align=center;" parent="2b4e8129b02d487f-4" vertex="1">
          <mxGeometry x="90" y="36.5" width="80" height="37" as="geometry" />
        </mxCell>
        <mxCell id="oVZ1BAvheATIpDn7J5tm-1" value="&lt;font style=&quot;font-size: 8.5px;&quot;&gt;Registrar&amp;nbsp;&lt;/font&gt;" style="rounded=1;whiteSpace=wrap;html=1;shadow=0;labelBackgroundColor=none;strokeWidth=1;fontFamily=Verdana;fontSize=9;align=center;" vertex="1" parent="2b4e8129b02d487f-4">
          <mxGeometry x="90" y="106.5" width="80" height="37" as="geometry" />
        </mxCell>
        <mxCell id="oVZ1BAvheATIpDn7J5tm-16" value="&lt;span style=&quot;font-size: 10px;&quot;&gt;Nível 2&lt;/span&gt;" style="swimlane;html=1;startSize=20;horizontal=0;" vertex="1" parent="2b4e8129b02d487f-1">
          <mxGeometry y="330" width="810" height="70" as="geometry" />
        </mxCell>
        <mxCell id="Rq8yyQeP4w4pOeJSHKfv-42" value="&lt;font style=&quot;font-size: 10px;&quot;&gt;Nível 3&lt;/font&gt;" style="swimlane;html=1;startSize=20;horizontal=0;" parent="oVZ1BAvheATIpDn7J5tm-16" vertex="1">
          <mxGeometry y="70" width="810" height="270" as="geometry" />
        </mxCell>
        <mxCell id="s4QCKkaL5V6jj3v_4gCT-52" value="" style="edgeStyle=orthogonalEdgeStyle;rounded=0;orthogonalLoop=1;jettySize=auto;html=1;" parent="Rq8yyQeP4w4pOeJSHKfv-42" source="s4QCKkaL5V6jj3v_4gCT-45" target="s4QCKkaL5V6jj3v_4gCT-51" edge="1">
          <mxGeometry relative="1" as="geometry" />
        </mxCell>
        <mxCell id="s4QCKkaL5V6jj3v_4gCT-45" value="&lt;span style=&quot;font-size: 8.5px;&quot;&gt;Fazer análise&lt;/span&gt;" style="rounded=1;whiteSpace=wrap;html=1;shadow=0;labelBackgroundColor=none;strokeWidth=1;fontFamily=Verdana;fontSize=8;align=center;" parent="Rq8yyQeP4w4pOeJSHKfv-42" vertex="1">
          <mxGeometry x="80" y="20" width="100" height="37" as="geometry" />
        </mxCell>
        <mxCell id="s4QCKkaL5V6jj3v_4gCT-54" style="edgeStyle=orthogonalEdgeStyle;rounded=0;orthogonalLoop=1;jettySize=auto;html=1;exitX=0.5;exitY=1;exitDx=0;exitDy=0;entryX=0;entryY=0.5;entryDx=0;entryDy=0;" parent="Rq8yyQeP4w4pOeJSHKfv-42" source="s4QCKkaL5V6jj3v_4gCT-51" target="s4QCKkaL5V6jj3v_4gCT-53" edge="1">
          <mxGeometry relative="1" as="geometry" />
        </mxCell>
        <mxCell id="s4QCKkaL5V6jj3v_4gCT-51" value="&lt;span style=&quot;font-size: 8.5px;&quot;&gt;Criar Solução de Contorno&lt;/span&gt;" style="rounded=1;whiteSpace=wrap;html=1;shadow=0;labelBackgroundColor=none;strokeWidth=1;fontFamily=Verdana;fontSize=8;align=center;" parent="Rq8yyQeP4w4pOeJSHKfv-42" vertex="1">
          <mxGeometry x="65" y="80" width="130" height="37" as="geometry" />
        </mxCell>
        <mxCell id="s4QCKkaL5V6jj3v_4gCT-56" style="edgeStyle=orthogonalEdgeStyle;rounded=0;orthogonalLoop=1;jettySize=auto;html=1;exitX=0.5;exitY=1;exitDx=0;exitDy=0;entryX=0;entryY=0.5;entryDx=0;entryDy=0;" parent="Rq8yyQeP4w4pOeJSHKfv-42" source="s4QCKkaL5V6jj3v_4gCT-53" target="s4QCKkaL5V6jj3v_4gCT-55" edge="1">
          <mxGeometry relative="1" as="geometry" />
        </mxCell>
        <mxCell id="oVZ1BAvheATIpDn7J5tm-5" style="edgeStyle=orthogonalEdgeStyle;rounded=0;orthogonalLoop=1;jettySize=auto;html=1;exitX=0.5;exitY=0;exitDx=0;exitDy=0;entryX=1;entryY=0.5;entryDx=0;entryDy=0;" edge="1" parent="Rq8yyQeP4w4pOeJSHKfv-42" source="s4QCKkaL5V6jj3v_4gCT-53" target="s4QCKkaL5V6jj3v_4gCT-45">
          <mxGeometry relative="1" as="geometry" />
        </mxCell>
        <mxCell id="s4QCKkaL5V6jj3v_4gCT-53" value="&lt;span style=&quot;font-size: 8.5px;&quot;&gt;Funcionou?&lt;/span&gt;" style="rhombus;whiteSpace=wrap;html=1;fontSize=8;fontFamily=Verdana;rounded=1;shadow=0;labelBackgroundColor=none;strokeWidth=1;arcSize=0;" parent="Rq8yyQeP4w4pOeJSHKfv-42" vertex="1">
          <mxGeometry x="170" y="140" width="100" height="51.06" as="geometry" />
        </mxCell>
        <mxCell id="s4QCKkaL5V6jj3v_4gCT-61" style="edgeStyle=orthogonalEdgeStyle;rounded=0;orthogonalLoop=1;jettySize=auto;html=1;exitX=1;exitY=0.5;exitDx=0;exitDy=0;entryX=0.5;entryY=1;entryDx=0;entryDy=0;" parent="Rq8yyQeP4w4pOeJSHKfv-42" source="s4QCKkaL5V6jj3v_4gCT-55" target="oVZ1BAvheATIpDn7J5tm-6" edge="1">
          <mxGeometry relative="1" as="geometry">
            <mxPoint x="460" y="87" as="targetPoint" />
          </mxGeometry>
        </mxCell>
        <mxCell id="s4QCKkaL5V6jj3v_4gCT-55" value="&lt;span style=&quot;font-size: 8.5px;&quot;&gt;Analisar Causa Raiz&lt;/span&gt;" style="rounded=1;whiteSpace=wrap;html=1;shadow=0;labelBackgroundColor=none;strokeWidth=1;fontFamily=Verdana;fontSize=8;align=center;" parent="Rq8yyQeP4w4pOeJSHKfv-42" vertex="1">
          <mxGeometry x="310" y="210" width="100" height="37" as="geometry" />
        </mxCell>
        <mxCell id="s4QCKkaL5V6jj3v_4gCT-57" value="sim" style="text;html=1;align=center;verticalAlign=middle;resizable=0;points=[];autosize=1;strokeColor=none;fillColor=none;" parent="Rq8yyQeP4w4pOeJSHKfv-42" vertex="1">
          <mxGeometry x="220" y="191.06" width="40" height="30" as="geometry" />
        </mxCell>
        <mxCell id="s4QCKkaL5V6jj3v_4gCT-60" value="não" style="text;html=1;align=center;verticalAlign=middle;resizable=0;points=[];autosize=1;strokeColor=none;fillColor=none;" parent="Rq8yyQeP4w4pOeJSHKfv-42" vertex="1">
          <mxGeometry x="220" y="110" width="40" height="30" as="geometry" />
        </mxCell>
        <mxCell id="s4QCKkaL5V6jj3v_4gCT-67" value="" style="edgeStyle=orthogonalEdgeStyle;rounded=0;orthogonalLoop=1;jettySize=auto;html=1;" parent="Rq8yyQeP4w4pOeJSHKfv-42" source="s4QCKkaL5V6jj3v_4gCT-64" target="s4QCKkaL5V6jj3v_4gCT-66" edge="1">
          <mxGeometry relative="1" as="geometry" />
        </mxCell>
        <mxCell id="s4QCKkaL5V6jj3v_4gCT-64" value="&lt;font style=&quot;font-size: 8.5px;&quot;&gt;Validar&lt;/font&gt;" style="rounded=1;whiteSpace=wrap;html=1;shadow=0;labelBackgroundColor=none;strokeWidth=1;fontFamily=Verdana;fontSize=8;align=center;" parent="Rq8yyQeP4w4pOeJSHKfv-42" vertex="1">
          <mxGeometry x="700" y="147.03" width="60" height="37" as="geometry" />
        </mxCell>
        <mxCell id="oVZ1BAvheATIpDn7J5tm-15" style="edgeStyle=orthogonalEdgeStyle;rounded=0;orthogonalLoop=1;jettySize=auto;html=1;exitX=0.5;exitY=0;exitDx=0;exitDy=0;entryX=1;entryY=0.5;entryDx=0;entryDy=0;" edge="1" parent="Rq8yyQeP4w4pOeJSHKfv-42" source="s4QCKkaL5V6jj3v_4gCT-66" target="s4QCKkaL5V6jj3v_4gCT-68">
          <mxGeometry relative="1" as="geometry" />
        </mxCell>
        <mxCell id="s4QCKkaL5V6jj3v_4gCT-66" value="&lt;font style=&quot;font-size: 8.5px;&quot;&gt;Documentar&lt;/font&gt;" style="rounded=1;whiteSpace=wrap;html=1;shadow=0;labelBackgroundColor=none;strokeWidth=1;fontFamily=Verdana;fontSize=8;align=center;" parent="Rq8yyQeP4w4pOeJSHKfv-42" vertex="1">
          <mxGeometry x="700" y="80.03" width="60" height="37" as="geometry" />
        </mxCell>
        <mxCell id="MtvkgOJpsOfjY5D2A3Oo-2" style="edgeStyle=orthogonalEdgeStyle;rounded=0;orthogonalLoop=1;jettySize=auto;html=1;exitX=0;exitY=0.5;exitDx=0;exitDy=0;" parent="Rq8yyQeP4w4pOeJSHKfv-42" source="s4QCKkaL5V6jj3v_4gCT-68" target="MtvkgOJpsOfjY5D2A3Oo-1" edge="1">
          <mxGeometry relative="1" as="geometry" />
        </mxCell>
        <mxCell id="s4QCKkaL5V6jj3v_4gCT-68" value="&lt;font style=&quot;font-size: 8.5px;&quot;&gt;Atualizar base de conhecimentos&lt;/font&gt;" style="rounded=1;whiteSpace=wrap;html=1;shadow=0;labelBackgroundColor=none;strokeWidth=1;fontFamily=Verdana;fontSize=8;align=center;" parent="Rq8yyQeP4w4pOeJSHKfv-42" vertex="1">
          <mxGeometry x="520" y="21.5" width="100" height="37" as="geometry" />
        </mxCell>
        <mxCell id="MtvkgOJpsOfjY5D2A3Oo-1" value="" style="shape=cylinder3;whiteSpace=wrap;html=1;boundedLbl=1;backgroundOutline=1;size=6.166666666666686;" parent="Rq8yyQeP4w4pOeJSHKfv-42" vertex="1">
          <mxGeometry x="465" y="20" width="30" height="40" as="geometry" />
        </mxCell>
        <mxCell id="oVZ1BAvheATIpDn7J5tm-7" style="edgeStyle=orthogonalEdgeStyle;rounded=0;orthogonalLoop=1;jettySize=auto;html=1;exitX=0;exitY=0.5;exitDx=0;exitDy=0;entryX=0.5;entryY=0;entryDx=0;entryDy=0;" edge="1" parent="Rq8yyQeP4w4pOeJSHKfv-42" source="oVZ1BAvheATIpDn7J5tm-6" target="s4QCKkaL5V6jj3v_4gCT-55">
          <mxGeometry relative="1" as="geometry" />
        </mxCell>
        <mxCell id="oVZ1BAvheATIpDn7J5tm-11" style="edgeStyle=orthogonalEdgeStyle;rounded=0;orthogonalLoop=1;jettySize=auto;html=1;exitX=1;exitY=0.5;exitDx=0;exitDy=0;entryX=0.5;entryY=0;entryDx=0;entryDy=0;" edge="1" parent="Rq8yyQeP4w4pOeJSHKfv-42" source="oVZ1BAvheATIpDn7J5tm-6" target="oVZ1BAvheATIpDn7J5tm-10">
          <mxGeometry relative="1" as="geometry" />
        </mxCell>
        <mxCell id="oVZ1BAvheATIpDn7J5tm-6" value="&lt;span style=&quot;font-size: 8.5px;&quot;&gt;Causa Raiz identificada?&lt;/span&gt;" style="rhombus;whiteSpace=wrap;html=1;fontSize=8;fontFamily=Verdana;rounded=1;shadow=0;labelBackgroundColor=none;strokeWidth=1;arcSize=0;" vertex="1" parent="Rq8yyQeP4w4pOeJSHKfv-42">
          <mxGeometry x="410" y="117.02999999999994" width="100" height="51.06" as="geometry" />
        </mxCell>
        <mxCell id="oVZ1BAvheATIpDn7J5tm-8" value="não" style="text;html=1;align=center;verticalAlign=middle;resizable=0;points=[];autosize=1;strokeColor=none;fillColor=none;" vertex="1" parent="Rq8yyQeP4w4pOeJSHKfv-42">
          <mxGeometry x="370" y="113" width="40" height="30" as="geometry" />
        </mxCell>
        <mxCell id="oVZ1BAvheATIpDn7J5tm-9" value="sim" style="text;html=1;align=center;verticalAlign=middle;resizable=0;points=[];autosize=1;strokeColor=none;fillColor=none;" vertex="1" parent="Rq8yyQeP4w4pOeJSHKfv-42">
          <mxGeometry x="460" y="168.08999999999992" width="40" height="30" as="geometry" />
        </mxCell>
        <mxCell id="oVZ1BAvheATIpDn7J5tm-13" value="" style="edgeStyle=orthogonalEdgeStyle;rounded=0;orthogonalLoop=1;jettySize=auto;html=1;" edge="1" parent="Rq8yyQeP4w4pOeJSHKfv-42" source="oVZ1BAvheATIpDn7J5tm-10" target="oVZ1BAvheATIpDn7J5tm-12">
          <mxGeometry relative="1" as="geometry" />
        </mxCell>
        <mxCell id="oVZ1BAvheATIpDn7J5tm-10" value="&lt;span style=&quot;font-size: 8.5px;&quot;&gt;Abrir GMUD de correção&lt;/span&gt;" style="rounded=1;whiteSpace=wrap;html=1;shadow=0;labelBackgroundColor=none;strokeWidth=1;fontFamily=Verdana;fontSize=8;align=center;" vertex="1" parent="Rq8yyQeP4w4pOeJSHKfv-42">
          <mxGeometry x="510" y="210" width="100" height="37" as="geometry" />
        </mxCell>
        <mxCell id="oVZ1BAvheATIpDn7J5tm-14" style="edgeStyle=orthogonalEdgeStyle;rounded=0;orthogonalLoop=1;jettySize=auto;html=1;exitX=1;exitY=0.5;exitDx=0;exitDy=0;entryX=1;entryY=0.5;entryDx=0;entryDy=0;" edge="1" parent="Rq8yyQeP4w4pOeJSHKfv-42" source="oVZ1BAvheATIpDn7J5tm-12" target="s4QCKkaL5V6jj3v_4gCT-64">
          <mxGeometry relative="1" as="geometry" />
        </mxCell>
        <mxCell id="oVZ1BAvheATIpDn7J5tm-12" value="&lt;span style=&quot;font-size: 8.5px;&quot;&gt;Executar correção&lt;/span&gt;" style="rounded=1;whiteSpace=wrap;html=1;shadow=0;labelBackgroundColor=none;strokeWidth=1;fontFamily=Verdana;fontSize=8;align=center;" vertex="1" parent="Rq8yyQeP4w4pOeJSHKfv-42">
          <mxGeometry x="650" y="210" width="100" height="37" as="geometry" />
        </mxCell>
        <mxCell id="oVZ1BAvheATIpDn7J5tm-3" style="edgeStyle=orthogonalEdgeStyle;rounded=0;orthogonalLoop=1;jettySize=auto;html=1;exitX=0.5;exitY=1;exitDx=0;exitDy=0;entryX=0.5;entryY=0;entryDx=0;entryDy=0;" edge="1" parent="2b4e8129b02d487f-1" source="oVZ1BAvheATIpDn7J5tm-1" target="s4QCKkaL5V6jj3v_4gCT-45">
          <mxGeometry relative="1" as="geometry" />
        </mxCell>
        <mxCell id="oVZ1BAvheATIpDn7J5tm-18" value="" style="edgeStyle=orthogonalEdgeStyle;rounded=0;orthogonalLoop=1;jettySize=auto;html=1;" edge="1" parent="2b4e8129b02d487f-1" source="s4QCKkaL5V6jj3v_4gCT-68" target="oVZ1BAvheATIpDn7J5tm-17">
          <mxGeometry relative="1" as="geometry" />
        </mxCell>
      </root>
    </mxGraphModel>
  </diagram>
  <diagram id="lxUI3d_rD5jTfaR1FGZt" name="Página-2">
    <mxGraphModel dx="872" dy="537" grid="1" gridSize="10" guides="1" tooltips="1" connect="1" arrows="1" fold="1" page="1" pageScale="1" pageWidth="827" pageHeight="1169" math="0" shadow="0">
      <root>
        <mxCell id="0" />
        <mxCell id="1" parent="0" />
      </root>
    </mxGraphModel>
  </diagram>
</mxfile>
